<?xml version="1.0" standalone="no"?>
<!DOCTYPE svg PUBLIC "-//W3C//DTD SVG 20010904//EN"
 "http://www.w3.org/TR/2001/REC-SVG-20010904/DTD/svg10.dtd">
<svg version="1.0" xmlns="http://www.w3.org/2000/svg"
 width="512.000000pt" height="512.000000pt" viewBox="0 0 512.000000 512.000000"
 preserveAspectRatio="xMidYMid meet">
<metadata>
Created by potrace 1.14, written by Peter Selinger 2001-2017
</metadata>
<g transform="translate(0.000000,512.000000) scale(0.100000,-0.100000)"
fill="#000000" stroke="none">
<path d="M586 5099 l-26 -20 0 -278 c0 -277 0 -278 23 -299 32 -30 87 -29 115
1 21 23 22 30 22 299 l0 277 -26 20 c-15 12 -39 21 -54 21 -15 0 -39 -9 -54
-21z"/>
<path d="M1146 5099 c-26 -20 -26 -21 -26 -159 l0 -139 -480 -482 -480 -481 0
365 0 364 113 111 112 112 -84 0 c-79 0 -87 -2 -113 -27 l-28 -27 0 27 c0 26
-2 27 -59 27 -52 0 -62 -3 -80 -26 l-21 -27 0 -2111 c0 -2315 -3 -2185 60
-2311 16 -33 46 -82 67 -110 48 -63 172 -147 260 -177 l68 -23 2085 -3 c1543
-2 2099 0 2140 8 198 42 372 209 425 410 12 43 15 130 15 396 l0 341 -23 21
-23 22 -537 0 -537 0 0 -359 0 -359 -158 -161 -157 -161 -365 0 -365 0 523
523 522 522 0 88 0 88 -609 -611 -609 -610 -364 0 -363 0 440 440 440 440 151
0 c144 0 151 1 172 23 30 32 29 87 -1 115 -19 18 -35 22 -85 22 -34 0 -62 3
-62 8 0 4 200 207 445 452 l445 445 0 82 c0 46 -2 83 -5 83 -3 0 -245 -240
-537 -533 l-533 -532 -357 -3 c-197 -1 -358 1 -358 5 0 5 33 41 73 81 66 66
76 72 113 72 54 0 84 31 84 86 0 38 8 47 295 334 162 162 295 291 295 287 0
-5 -18 -39 -40 -77 -49 -84 -53 -129 -14 -159 35 -28 79 -27 107 2 13 12 38
50 57 85 34 61 39 65 260 212 l226 150 59 103 c32 56 140 244 240 417 218 378
697 1210 767 1333 28 48 54 89 58 92 4 3 37 -12 73 -33 l65 -38 -35 -59 c-219
-372 -373 -650 -373 -676 0 -63 81 -102 128 -61 36 31 472 797 472 828 -1 42
-14 54 -132 124 -60 34 -108 65 -108 69 0 3 14 33 31 66 26 51 30 70 28 130
-1 65 1 75 39 140 67 116 75 190 32 275 -43 83 -122 130 -217 130 -104 -1
-175 -52 -245 -179 -27 -49 -40 -63 -74 -76 -22 -8 -56 -32 -76 -53 -20 -20
-118 -179 -218 -352 -100 -173 -205 -353 -233 -399 -45 -76 -124 -158 -756
-790 -443 -443 -706 -699 -709 -690 -3 8 -14 24 -25 37 -20 22 -22 22 -321 22
l-301 0 320 320 320 320 307 0 307 0 20 26 c27 34 27 74 0 108 l-20 26 -227 0
-227 0 669 669 c511 511 664 670 651 675 -9 3 -46 6 -81 6 l-64 0 -675 -675
-675 -675 -328 0 -329 0 -21 -23 c-30 -32 -29 -87 1 -115 23 -21 31 -22 265
-22 133 0 242 -2 242 -5 0 -3 -191 -196 -425 -430 l-425 -425 0 98 c-1 144
-36 211 -135 258 -39 19 -67 24 -130 24 l-80 0 400 400 400 400 271 0 c270 0
271 0 292 23 30 32 29 87 -1 115 -22 21 -32 22 -213 22 l-189 0 375 375 c364
364 375 374 397 360 34 -23 86 -19 111 8 18 19 22 35 22 92 l0 69 62 63 62 63
-62 0 -62 0 0 140 c0 136 -1 142 -25 165 -30 31 -73 32 -109 4 l-26 -20 0
-200 0 -199 -460 -460 c-446 -446 -461 -460 -498 -460 -51 0 -82 -32 -82 -83
0 -35 -11 -48 -160 -197 l-160 -160 0 208 c0 198 -1 209 -25 259 -16 37 -38
63 -70 85 l-46 32 443 443 443 443 -88 0 -88 0 -85 -86 -84 -86 0 230 0 231
-26 20 c-15 12 -39 21 -54 21 -15 0 -39 -9 -54 -21 l-26 -20 0 -279 c0 -175 4
-281 10 -285 6 -3 10 -13 10 -21 0 -8 -126 -140 -280 -294 l-280 -280 -151 0
c-171 0 -212 -9 -268 -57 -71 -60 -81 -96 -81 -280 l0 -161 -240 -243 -240
-243 0 365 0 364 478 478 477 477 3 -47 c4 -62 32 -93 82 -93 25 0 43 7 58 23
21 23 22 30 22 296 l0 272 -25 24 c-30 31 -73 32 -109 4z m2473 -1606 c-18
-32 -141 -245 -273 -473 l-240 -415 -12 -170 c-6 -93 -12 -171 -13 -173 0 -1
-168 -169 -371 -372 l-370 -370 -267 0 c-260 0 -267 -1 -290 -22 -30 -28 -31
-83 -1 -115 21 -22 26 -23 205 -23 101 0 183 -3 183 -6 0 -3 -33 -38 -72 -77
l-73 -72 -110 -3 c-95 -3 -113 -7 -132 -25 -48 -44 -15 -137 48 -137 25 0 -28
-57 -410 -440 l-439 -440 -154 0 c-184 0 -250 11 -343 55 -131 63 -151 24 190
365 l300 300 141 0 c154 0 186 7 244 57 18 15 43 50 56 78 21 45 24 64 24 190
l0 140 407 407 408 408 209 0 c202 0 211 1 233 22 30 28 31 83 1 115 -20 22
-28 23 -152 23 l-131 0 615 615 c338 338 616 615 618 615 2 0 -11 -26 -29 -57z
m-2867 -340 c41 -28 41 -28 262 -33 l221 -5 -158 -157 c-152 -153 -158 -158
-198 -158 -133 0 -239 -101 -239 -227 l0 -51 -240 -243 -240 -243 0 365 0 365
247 246 247 246 28 -39 c15 -21 47 -51 70 -66z m1031 -650 c20 -23 22 -23 319
-23 l299 0 -81 -80 -81 -80 -216 0 c-209 0 -218 -1 -240 -22 -31 -29 -31 -87
0 -116 20 -19 36 -22 157 -24 l135 -3 -322 -322 -321 -321 -13 30 c-20 50 -60
89 -114 114 -47 22 -62 24 -240 24 l-190 0 160 160 c139 139 164 160 191 160
41 0 93 22 134 57 38 31 80 114 80 158 0 25 25 55 158 188 115 115 158 153
160 140 2 -10 13 -28 25 -40z m-1126 -364 c17 -38 59 -85 101 -111 31 -19 55
-24 147 -28 l110 -5 -428 -428 -427 -429 0 364 0 364 238 237 237 237 5 -88
c3 -48 11 -99 17 -113z m-3 -1114 c19 -42 60 -88 103 -115 l45 -29 -258 -257
-257 -257 -20 24 c-33 39 -84 160 -96 223 -6 33 -11 125 -11 206 l0 146 238
237 237 237 5 -198 c3 -108 9 -206 14 -217z m1667 -425 l-439 -440 -364 0
-363 0 440 440 440 440 362 0 362 0 -438 -440z m1751 -314 c15 -30 41 -70 58
-90 l32 -36 -153 0 -154 0 90 90 c49 50 92 90 95 90 3 0 18 -24 32 -54z"/>
<path d="M2266 5099 l-26 -20 0 -278 c0 -277 0 -278 23 -299 32 -30 87 -29
115 1 21 23 22 30 22 299 l0 277 -26 20 c-15 12 -39 21 -54 21 -15 0 -39 -9
-54 -21z"/>
<path d="M3386 5099 l-26 -20 0 -278 c0 -277 0 -278 23 -299 32 -30 87 -29
115 1 21 23 22 30 22 296 l0 272 -25 24 c-30 31 -73 32 -109 4z"/>
</g>
</svg>
