<?xml version="1.0" standalone="no"?>
<!DOCTYPE svg PUBLIC "-//W3C//DTD SVG 20010904//EN"
 "http://www.w3.org/TR/2001/REC-SVG-20010904/DTD/svg10.dtd">
<svg version="1.0" xmlns="http://www.w3.org/2000/svg"
 width="512.000000pt" height="512.000000pt" viewBox="0 0 512.000000 512.000000"
 preserveAspectRatio="xMidYMid meet">
<metadata>
Created by potrace 1.14, written by Peter Selinger 2001-2017
</metadata>
<g transform="translate(0.000000,512.000000) scale(0.100000,-0.100000)"
fill="#000000" stroke="none">
<path d="M586 5099 l-26 -20 0 -278 c0 -277 0 -278 23 -299 32 -30 87 -29 115
1 21 23 22 30 22 299 l0 277 -26 20 c-15 12 -39 21 -54 21 -15 0 -39 -9 -54
-21z"/>
<path d="M1146 5099 l-26 -20 0 -278 c0 -277 0 -278 23 -299 32 -30 87 -29
115 1 21 23 22 30 22 299 l0 277 -26 20 c-15 12 -39 21 -54 21 -15 0 -39 -9
-54 -21z"/>
<path d="M1706 5099 l-26 -20 0 -278 c0 -277 0 -278 23 -299 32 -30 87 -29
115 1 21 23 22 30 22 299 l0 277 -26 20 c-15 12 -39 21 -54 21 -15 0 -39 -9
-54 -21z"/>
<path d="M2266 5099 l-26 -20 0 -278 c0 -277 0 -278 23 -299 32 -30 87 -29
115 1 21 23 22 30 22 299 l0 277 -26 20 c-15 12 -39 21 -54 21 -15 0 -39 -9
-54 -21z"/>
<path d="M2826 5099 l-26 -20 0 -278 c0 -277 0 -278 23 -299 32 -30 87 -29
115 1 21 23 22 30 22 299 l0 277 -26 20 c-15 12 -39 21 -54 21 -15 0 -39 -9
-54 -21z"/>
<path d="M3386 5099 l-26 -20 0 -278 c0 -277 0 -278 23 -299 32 -30 87 -29
115 1 21 23 22 30 22 299 l0 277 -26 20 c-15 12 -39 21 -54 21 -15 0 -39 -9
-54 -21z"/>
<path d="M4695 5101 c-50 -22 -103 -80 -147 -160 -27 -49 -40 -63 -74 -76 -22
-8 -56 -32 -76 -53 -20 -20 -117 -176 -216 -347 -98 -170 -253 -438 -344 -595
-91 -157 -208 -359 -260 -450 -53 -91 -180 -311 -283 -490 -120 -207 -189
-337 -192 -360 -2 -19 -10 -142 -18 -272 l-14 -237 -40 -70 c-50 -85 -54 -129
-15 -160 35 -28 79 -27 107 2 13 12 38 50 57 85 34 61 39 65 260 212 224 148
226 150 265 217 73 126 447 777 528 918 135 236 528 919 544 943 l14 23 61
-33 c33 -18 62 -38 65 -44 2 -6 -86 -167 -197 -358 -136 -238 -200 -357 -200
-377 0 -63 81 -102 128 -61 12 9 122 193 246 409 157 271 226 401 226 421 0
38 -28 62 -150 132 -49 28 -90 55 -90 58 0 4 14 34 31 67 26 51 30 70 28 130
-1 65 1 75 40 141 57 98 68 154 47 227 -32 110 -119 177 -231 177 -37 0 -76
-8 -100 -19z"/>
<path d="M63 4793 c-13 -2 -32 -16 -43 -30 -20 -26 -20 -28 -18 -2167 l3
-2141 22 -66 c57 -166 196 -305 362 -362 l66 -22 2085 -3 c1542 -2 2099 0
2140 8 198 42 372 209 425 410 12 43 15 130 15 396 l0 341 -23 21 -23 22 -537
0 -537 0 0 -352 c0 -394 4 -428 65 -548 19 -38 49 -85 66 -105 l31 -35 -1749
0 c-1711 0 -1752 0 -1827 20 -125 32 -226 97 -306 197 -51 65 -78 121 -101
210 -18 74 -19 131 -19 2145 l0 2068 -37 -1 c-21 -1 -48 -4 -60 -6z"/>
<path d="M791 3906 c-50 -18 -106 -70 -130 -120 -21 -42 -22 -56 -19 -279 l3
-235 30 -43 c17 -24 50 -57 74 -74 l43 -30 226 -3 c138 -2 241 1 262 7 52 16
110 68 136 125 23 49 24 61 24 266 0 205 -1 217 -24 265 -28 60 -56 87 -116
114 -41 19 -64 21 -260 20 -143 0 -226 -5 -249 -13z"/>
<path d="M1782 3737 c-30 -32 -29 -87 1 -115 23 -22 29 -22 338 -22 l316 0 21
23 c30 32 29 87 -1 115 -23 22 -29 22 -338 22 l-316 0 -21 -23z"/>
<path d="M1782 3417 c-30 -32 -29 -87 1 -115 l23 -22 641 0 642 0 20 26 c12
15 21 39 21 54 0 15 -9 39 -21 54 l-20 26 -643 0 -643 0 -21 -23z"/>
<path d="M791 2786 c-49 -18 -106 -70 -130 -119 -19 -40 -21 -60 -21 -265 0
-205 2 -226 21 -267 24 -50 76 -100 125 -121 49 -21 458 -20 507 1 54 22 98
65 123 120 23 48 24 60 24 265 0 205 -1 217 -24 265 -28 60 -56 87 -116 114
-41 19 -64 21 -260 20 -143 0 -226 -5 -249 -13z"/>
<path d="M1782 2617 c-30 -32 -29 -87 1 -115 23 -22 29 -22 338 -22 l316 0 21
23 c30 32 29 87 -1 115 -23 22 -29 22 -338 22 l-316 0 -21 -23z"/>
<path d="M1782 2297 c-30 -32 -29 -87 1 -115 23 -22 25 -22 458 -22 l436 0 21
23 c30 32 29 87 -1 115 -23 22 -25 22 -458 22 l-436 0 -21 -23z"/>
<path d="M791 1666 c-49 -18 -106 -70 -130 -119 -19 -40 -21 -60 -21 -265 0
-205 2 -226 21 -267 24 -50 76 -100 125 -121 49 -21 458 -20 507 1 54 22 98
65 123 120 23 48 24 60 24 265 0 205 -1 217 -24 265 -28 60 -56 87 -116 114
-41 19 -64 21 -260 20 -143 0 -226 -5 -249 -13z"/>
<path d="M1780 1500 c-29 -29 -27 -90 3 -118 23 -22 29 -22 338 -22 l316 0 21
23 c30 32 29 87 -1 115 -23 22 -29 22 -340 22 -304 0 -318 -1 -337 -20z"/>
<path d="M1780 1180 c-29 -29 -27 -90 3 -118 l23 -22 715 0 716 0 21 23 c30
32 29 87 -1 115 l-23 22 -717 0 c-704 0 -717 0 -737 -20z"/>
</g>
</svg>
